<?xml version="1.0" encoding="UTF-8" standalone="no"?>
<!DOCTYPE svg PUBLIC "-//W3C//DTD SVG 1.1//EN" "http://www.w3.org/Graphics/SVG/1.1/DTD/svg11.dtd">
<svg width="100%" height="100%" viewBox="0 0 512 476" version="1.1" xmlns="http://www.w3.org/2000/svg" xmlns:xlink="http://www.w3.org/1999/xlink" xml:space="preserve" xmlns:serif="http://www.serif.com/" style="fill-rule:evenodd;clip-rule:evenodd;stroke-linejoin:round;stroke-miterlimit:2;">
    <g id="Arrière-plan" transform="matrix(2.415094,0,0,2.416244,-89.358491,-256.121827)">
        <path d="M105.594,295.282C58.791,281.631 80.831,166.93 87.885,143.609C109.956,70.643 136.888,132.12 160.86,166.251C168.283,176.821 171.188,175.634 172.77,188.509C174.193,200.083 143.341,151.645 129.203,140.9C105.463,122.857 97.186,175.986 95.772,184.55C80.784,275.329 119.895,297.042 156.43,260.43C173.371,243.454 177.173,223.306 178.183,229.602C179.305,236.598 179.841,236.779 177.046,243.299C158.737,286.01 130.111,293.69 124.398,295.223C124.851,295.558 124.932,296.261 125.385,296.596C125.658,296.798 130.496,296.503 134.5,296.501C193.923,296.477 199.988,294.919 196.284,298.195C195.316,299.051 133.003,298.541 127.5,298.496C48.227,297.847 41.12,299.47 39.744,298.172C39.556,297.995 38.656,296.503 42.5,296.5C98.763,296.453 98.698,296.724 103.585,296.69C103.585,296.69 105.434,295.395 105.594,295.282Z" style="fill:rgb(4,5,0);"/>
        <path d="M212.513,204.959C198.57,203.865 172.09,178.164 193.441,173.25C200.77,171.564 219.631,168.623 213.964,175.876C202.695,190.295 199.388,191.496 203.588,194.368C220.496,205.928 214.206,173.778 219.314,177.736C220.498,178.652 220.5,178.959 219.055,196.447C218.418,204.164 213.364,204.844 212.513,204.959Z" style="fill:rgb(4,5,0);"/>
        <path d="M240.5,219.499C147.27,219.512 146.542,219.574 146.54,218.5C146.539,217.501 153.858,217.5 154.5,217.5C245.799,217.495 246.546,217.397 246.545,218.5C246.545,219.417 240.99,219.493 240.5,219.499Z" style="fill:rgb(6,4,0);"/>
        <path d="M204.486,175.092C204.797,175.115 207.745,175.339 208.316,175.771C210.165,177.171 208.759,177.478 206.95,179C198.118,186.427 197.586,190.127 194.652,186.384C187.376,177.1 203.297,175.231 204.486,175.092Z" style="fill:rgb(248,248,246);"/>
        <path d="M190.556,170.903C187.822,171.201 186.156,171.62 186.207,166.481C186.242,162.993 192.233,164.548 193.5,164.469C193.767,164.453 198.48,164.16 196.285,166.305C193.548,168.98 194.198,169.88 190.556,170.903Z" style="fill:rgb(4,5,0);"/>
        <path d="M109.43,295.775C109.572,295.833 111.199,296.5 111.199,296.5C111.356,297.879 110.715,296.302 109.43,295.775Z" style="fill:rgb(61,61,58);"/>
    </g>
</svg>
